# xmcd
#
# Track frame offsets: 
#        150
#        12712
#        24947
#        37367
#        48153
#        61357
#        73228
#        84894
#        98058
#        111845
#        123338
#        134946
#        145745
#        158259
#        171868
#        185383
#        197392
#        210339
#        224869
#        234699
#        249737
#        260372
#        272108
#        283064
#        295364
#        306114
#        318952
#
# Disc length: 4413 seconds
#
# Revision: 0
# Processed by: cddbd v1.5.2PL0 Copyright (c) Steve Scherf et al.
# Submitted via: ExactAudioCopy v0.99pb3
#
DISCID=9b113b1b
DTITLE=Little Esther with Johnny Otis - Double Crossing Blues
DYEAR=1900
DGENRE=
TTITLE0=Double Crossing Blues
TTITLE1=Stop Crying
TTITLE2=Misery
TTITLE3=A Longing In My Heart
TTITLE4=Wedding Boogie
TTITLE5=Get Together Blues
TTITLE6=Cupid's Blues
TTITLE7=Love Will Break Your Heart
TTITLE8=Please Don't Send Me
TTITLE9=Just Can't Get Free
TTITLE10=Deceiving Blues
TTITLE11=I Dream
TTITLE12=Talking All Out Of My Head
TTITLE13=Mistrusting Blues
TTITLE14=I Don't Care
TTITLE15=Lover's Lane Boogie
TTITLE16=If You Want Me
TTITLE17=Lost Dream Blues
TTITLE18=He's A No Good Man
TTITLE19=Faraway Christmas Blues
TTITLE20=Sit Back Down
TTITLE21=Oo Papa Do
TTITLE22=It's So Good
TTITLE23=You Can Bet Your Life
TTITLE24=Do You Ever Think Of Me
TTITLE25=T'Aint Whatcha Say
TTITLE26=If It's News To You
EXTD=
EXTT0=
EXTT1=
EXTT2=
EXTT3=
EXTT4=
EXTT5=
EXTT6=
EXTT7=
EXTT8=
EXTT9=
EXTT10=
EXTT11=
EXTT12=
EXTT13=
EXTT14=
EXTT15=
EXTT16=
EXTT17=
EXTT18=
EXTT19=
EXTT20=
EXTT21=
EXTT22=
EXTT23=
EXTT24=
EXTT25=
EXTT26=
PLAYORDER=
